# xmcd
#
# Track frame offsets:
#	183
#	12388
#	22595
#	33495
#	49455
#	61665
#	77198
#	91370
#	105498
#	119053
#	127730
#	142960
#	158113
#	169013
#	178733
#	189175
#	199138
#	210615
#	221348
#	233110
#
# Disc length: 3278 seconds
#
# Revision: 0
# Processed by: cddbd v1.5.2PL0 Copyright (c) Steve Scherf et al.
# Submitted via: dBpowerAMP V4.0
#
DISCID=070ccc14
DTITLE=Tito Madi - Tito Madi especial
DYEAR=1975
DGENRE=Vocal
TTITLE0=Chove la fora
TTITLE1=Cansei de ilusões
TTITLE2=Chuvas de verão
TTITLE3=Sonho e saudade
TTITLE4=Eu e a brisa
TTITLE5=Pra você
TTITLE6=Apelo
TTITLE7=Vim
TTITLE8=Carinho e amor
TTITLE9=Quero-te asim
TTITLE10=Por causa de você
TTITLE11=Minha
TTITLE12=Eu sei que vou te amar
TTITLE13=Molambo
TTITLE14=Alguém como tu
TTITLE15=Coração vagabundo
TTITLE16=Pra machucar meu coração
TTITLE17=canção da vol;ta
TTITLE18=Neste mesmo lugar
TTITLE19=Pra dizer adeus
EXTD=
EXTT0=
EXTT1=
EXTT2=
EXTT3=
EXTT4=
EXTT5=
EXTT6=
EXTT7=
EXTT8=
EXTT9=
EXTT10=
EXTT11=
EXTT12=
EXTT13=
EXTT14=
EXTT15=
EXTT16=
EXTT17=
EXTT18=
EXTT19=
PLAYORDER=
